<?xml version="1.0" standalone="no"?>
<!DOCTYPE svg PUBLIC "-//W3C//DTD SVG 20010904//EN"
 "http://www.w3.org/TR/2001/REC-SVG-20010904/DTD/svg10.dtd">
<svg version="1.0" xmlns="http://www.w3.org/2000/svg"
 width="352.000000pt" height="506.000000pt" viewBox="0 0 352.000000 506.000000"
 preserveAspectRatio="xMidYMid meet">

<g transform="translate(0.000000,506.000000) scale(0.100000,-0.100000)"
fill="#000000" stroke="none">
<path d="M1039 3117 c-16 -35 -5 -71 26 -85 14 -7 61 -12 104 -12 93 0 201
-10 201 -19 0 -4 -35 -24 -77 -45 -335 -165 -568 -453 -662 -817 -41 -162 -53
-419 -22 -478 16 -29 56 -37 85 -18 23 16 24 19 23 164 0 200 25 325 103 499
94 209 303 429 508 533 96 49 96 50 49 -42 -76 -149 -84 -207 -30 -228 31 -11
72 11 81 43 3 12 24 60 47 107 39 80 87 149 159 225 21 23 26 38 24 65 -4 45
-28 57 -183 97 -91 23 -138 28 -267 32 l-157 4 -12 -25z"/>
<path d="M1941 3006 c-7 -8 -11 -30 -9 -48 3 -30 10 -37 93 -81 315 -171 529
-454 599 -793 20 -100 27 -364 9 -364 -5 0 -24 28 -44 63 -56 95 -115 157
-149 157 -16 0 -36 -7 -44 -16 -28 -27 -18 -61 34 -126 52 -65 115 -185 146
-278 23 -70 40 -90 76 -90 59 0 285 257 369 419 21 40 21 46 8 70 -12 21 -22
26 -53 26 -38 0 -40 -2 -95 -92 -57 -92 -101 -153 -112 -153 -3 0 -4 53 -1
119 17 414 -189 831 -531 1072 -93 66 -219 129 -256 129 -16 0 -34 -6 -40 -14z"/>
<path d="M768 1374 c-24 -53 27 -245 111 -419 64 -130 83 -155 125 -155 62 0
74 51 29 123 -30 47 -93 185 -93 204 0 7 33 -8 73 -34 163 -104 338 -170 528
-198 134 -19 204 -19 338 0 195 29 416 115 546 213 55 42 70 85 40 116 -27 26
-61 19 -131 -29 -303 -208 -724 -245 -1074 -96 -78 33 -240 130 -240 143 0 5
38 8 85 8 96 0 179 15 200 37 23 23 19 70 -8 88 -19 12 -34 13 -77 5 -77 -15
-234 -12 -315 5 -101 22 -123 20 -137 -11z"/>
</g>
</svg>
