<?xml version="1.0" standalone="no"?>
<!DOCTYPE svg PUBLIC "-//W3C//DTD SVG 20010904//EN"
 "http://www.w3.org/TR/2001/REC-SVG-20010904/DTD/svg10.dtd">
<svg version="1.0" xmlns="http://www.w3.org/2000/svg"
 width="412.000000pt" height="506.000000pt" viewBox="0 0 412.000000 506.000000"
 preserveAspectRatio="xMidYMid meet">

<g transform="translate(0.000000,506.000000) scale(0.100000,-0.100000)"
fill="#000000" stroke="none">
<path d="M1091 3244 c-21 -26 -21 -33 -21 -792 l0 -766 -143 142 c-151 149
-175 163 -210 124 -39 -43 -27 -60 178 -266 190 -190 220 -216 246 -216 7 0
107 93 221 207 222 222 236 242 186 277 -43 30 -59 20 -203 -124 -77 -77 -143
-140 -147 -140 -5 0 -8 348 -8 773 0 737 -1 775 -18 790 -27 24 -58 21 -81 -9z"/>
<path d="M1972 3254 l-22 -15 0 -975 c0 -536 -3 -974 -6 -974 -3 0 -68 63
-145 140 -148 149 -168 161 -209 120 -11 -11 -20 -30 -20 -42 0 -33 407 -438
439 -438 18 0 76 51 218 193 107 105 201 204 209 220 15 28 7 62 -20 79 -34
23 -61 6 -200 -130 l-141 -137 -5 973 c-5 949 -5 974 -24 988 -25 18 -46 18
-74 -2z"/>
<path d="M2840 3250 c-20 -20 -20 -33 -20 -1192 l0 -1172 -143 142 c-111 110
-149 142 -170 142 -34 0 -57 -25 -57 -63 0 -27 24 -55 195 -223 107 -106 203
-198 215 -204 11 -6 29 -9 38 -6 10 3 109 97 220 209 211 212 222 227 182 267
-39 39 -59 28 -201 -115 -74 -74 -140 -135 -146 -135 -10 0 -13 241 -13 1169
l0 1170 -22 15 c-30 21 -54 20 -78 -4z"/>
</g>
</svg>
