<?xml version="1.0" standalone="no"?>
<!DOCTYPE svg PUBLIC "-//W3C//DTD SVG 20010904//EN"
 "http://www.w3.org/TR/2001/REC-SVG-20010904/DTD/svg10.dtd">
<svg version="1.0" xmlns="http://www.w3.org/2000/svg"
 width="264.000000pt" height="506.000000pt" viewBox="0 0 264.000000 506.000000"
 preserveAspectRatio="xMidYMid meet">

<g transform="translate(0.000000,506.000000) scale(0.100000,-0.100000)"
fill="#000000" stroke="none">
<path d="M730 3423 c-104 -17 -114 -39 -114 -228 0 -181 38 -293 135 -400 113
-123 256 -150 401 -76 l56 29 41 -42 41 -42 0 -218 0 -219 -41 7 c-95 15 -246
126 -289 211 -31 64 -51 85 -79 85 -66 0 -172 -170 -222 -355 -11 -40 -14
-192 -14 -750 l0 -700 28 -57 c80 -163 283 -207 423 -92 40 32 42 33 58 15 30
-33 115 -72 170 -78 70 -7 152 18 204 63 38 32 40 33 56 15 30 -33 115 -72
170 -78 83 -9 159 19 221 82 88 88 85 57 85 825 0 758 0 760 -75 916 -24 50
-65 114 -90 142 -68 75 -98 71 -147 -19 -56 -107 -191 -208 -298 -225 l-40 -7
0 214 1 214 43 48 44 49 39 -24 c47 -30 65 -37 123 -48 173 -33 357 124 414
351 19 76 21 234 5 309 -10 46 -15 54 -48 67 -21 9 -78 18 -137 21 -186 8
-339 -44 -449 -153 -33 -33 -67 -75 -74 -93 -7 -17 -16 -32 -20 -32 -3 0 -17
20 -30 46 -52 98 -176 182 -322 218 -60 15 -205 20 -269 9z m293 -141 c105
-35 183 -106 212 -192 14 -41 14 -51 0 -97 -9 -29 -20 -55 -26 -59 -6 -3 -68
50 -138 120 -134 132 -154 143 -191 106 -38 -38 -27 -58 105 -190 69 -69 125
-128 125 -132 0 -15 -73 -38 -120 -38 -151 0 -285 235 -255 449 5 40 11 51 28
55 45 10 203 -4 260 -22z m938 6 c12 -18 11 -144 -1 -208 -30 -158 -141 -280
-253 -280 -44 0 -117 23 -117 37 0 4 56 64 125 133 69 70 125 133 125 141 0
31 -31 59 -63 59 -28 0 -49 -16 -152 -120 -66 -66 -123 -120 -126 -120 -12 0
-39 79 -39 114 0 110 140 232 292 256 74 12 199 5 209 -12z m-576 -405 l26
-47 -30 -30 -31 -30 -29 28 -30 28 27 49 c15 27 30 49 34 49 3 0 18 -21 33
-47z m-458 -592 c223 -247 601 -254 833 -15 40 41 76 71 81 68 14 -8 50 -82
73 -149 19 -58 20 -85 24 -740 2 -609 1 -684 -13 -723 -19 -47 -64 -86 -112
-97 -75 -15 -167 43 -179 114 -11 61 -30 83 -71 79 -39 -3 -45 -11 -63 -77
-43 -160 -260 -152 -301 11 -15 55 -28 70 -64 70 -35 0 -53 -18 -61 -61 -4
-20 -15 -51 -26 -69 -55 -90 -206 -87 -260 6 -17 28 -18 81 -18 727 l0 696 24
73 c24 70 62 146 74 146 3 0 29 -27 59 -59z"/>
<path d="M890 1620 c-11 -11 -20 -31 -20 -45 0 -14 9 -34 20 -45 19 -19 33
-20 458 -20 489 0 482 -1 482 65 0 66 7 65 -482 65 -425 0 -439 -1 -458 -20z"/>
<path d="M880 1431 c-16 -30 -12 -59 10 -81 19 -19 33 -20 458 -20 487 0 482
-1 482 64 0 17 -5 37 -12 44 -9 9 -127 12 -470 12 -442 0 -458 -1 -468 -19z"/>
<path d="M879 1246 c-16 -35 -3 -75 28 -87 16 -6 188 -9 452 -8 468 1 471 2
471 58 0 65 34 61 -476 61 l-464 0 -11 -24z"/>
</g>
</svg>
